<?xml version="1.0" encoding="iso-8859-1"?>
<!-- Generator: Adobe Illustrator 15.0.2, SVG Export Plug-In . SVG Version: 6.00 Build 0)  -->
<!DOCTYPE svg PUBLIC "-//W3C//DTD SVG 1.1//EN" "http://www.w3.org/Graphics/SVG/1.1/DTD/svg11.dtd">
<svg version="1.1" id="Layer_1" xmlns="http://www.w3.org/2000/svg" xmlns:xlink="http://www.w3.org/1999/xlink" x="0px" y="0px"
	 width="150px" height="75px" viewBox="0 0 150 75" style="enable-background:new 0 0 150 75;" xml:space="preserve">
<style type="text/css">
<![CDATA[
]]>
</style>
<line style="fill:none;stroke:#000000;stroke-miterlimit:10;" x1="0" y1="75" x2="5.988" y2="0"/>
<line style="fill:none;stroke:#000000;stroke-miterlimit:10;" x1="5.988" y1="0" x2="143.982" y2="0"/>
<line style="fill:none;stroke:#000000;stroke-miterlimit:10;" x1="143.982" y1="0" x2="150" y2="75"/>
<line style="fill:none;stroke:#000000;stroke-miterlimit:10;" x1="150" y1="75" x2="0" y2="75"/>
<line style="fill:none;stroke:#000000;stroke-miterlimit:10;" x1="143.982" y1="0" x2="143.982" y2="75"/>
<line style="fill:none;stroke:#000000;stroke-miterlimit:10;" x1="5.988" y1="0" x2="5.988" y2="75"/>
<text transform="matrix(1 0 0 1 28.1514 57.1406)" style="font-family:'Stencil'; font-size:48.7017;">UAF</text>
<g>
	<g>
		<path d="M75.927,19.087c0.012-4.524,0.124-9.046,0-13.569c-0.024-0.864-1.375-0.456-1.759-0.107
			c-2.564,2.324-5.351,4.339-7.496,7.085c0.606,0.038,1.212,0.076,1.818,0.113c1.361-2.182,5.702-8.931,8.645-6.297
			c2.453,2.195,2.864,5.817,6.06,7.334c0.64,0.304,2.39-0.593,1.518-1.007c-3.743-1.777-4.28-8.708-9.073-8.413
			c-3.766,0.232-7.194,5.426-8.967,8.27c-0.55,0.882,1.432,0.608,1.818,0.113c2.056-2.633,4.797-4.553,7.253-6.779
			c-0.586-0.036-1.173-0.072-1.759-0.107c0.125,4.523,0.012,9.045,0,13.569C73.982,20.188,75.925,19.813,75.927,19.087
			L75.927,19.087z"/>
	</g>
</g>
</svg>
